<svg width="24" height="24" viewBox="0 0 24 24" fill="none" xmlns="http://www.w3.org/2000/svg">
<rect width="24" height="24" fill="white"/>
<rect x="16" y="11" width="4" height="1" fill="black"/>
<rect x="18" y="10" width="1" height="1" fill="black"/>
<rect x="17" y="9" width="1" height="1" fill="black"/>
<rect x="16" y="8" width="1" height="1" fill="black"/>
<rect x="18" y="12" width="1" height="1" fill="black"/>
<rect x="17" y="13" width="1" height="1" fill="black"/>
<rect x="16" y="14" width="1" height="1" fill="black"/>
<rect x="17" y="10" width="1" height="3" fill="black"/>
<rect x="12" y="11" width="8" height="1" fill="black"/>
<rect x="8" y="6" width="4" height="1" fill="black"/>
<rect x="10" y="5" width="1" height="1" fill="black"/>
<rect x="9" y="4" width="1" height="1" fill="black"/>
<rect x="8" y="3" width="1" height="1" fill="black"/>
<rect x="10" y="7" width="1" height="1" fill="black"/>
<rect x="9" y="8" width="1" height="1" fill="black"/>
<rect x="8" y="9" width="1" height="1" fill="black"/>
<rect x="9" y="5" width="1" height="3" fill="black"/>
<rect x="4" y="6" width="8" height="1" fill="black"/>
<rect x="6" y="17" width="7" height="1" fill="black"/>
<rect x="11" y="16" width="1" height="1" fill="black"/>
<rect x="10" y="15" width="1" height="1" fill="black"/>
<rect x="9" y="14" width="1" height="1" fill="black"/>
<rect x="11" y="18" width="1" height="1" fill="black"/>
<rect x="10" y="19" width="1" height="1" fill="black"/>
<rect x="9" y="20" width="1" height="1" fill="black"/>
<rect x="10" y="16" width="1" height="3" fill="black"/>
</svg>
